<svg width="16" height="16" xmlns="http://www.w3.org/2000/svg" viewBox="0 0 45.818 45.818">

        <defs id="colors">
        <linearGradient id="menuIconEnabled"
                        fallback="Label.foreground">
            <stop offset="0" stop-color="#AFB1B3"/>
            <stop offset="1" stop-color="#AFB1B3"/>
        </linearGradient>
    </defs>

	<path d="M22.909,0C10.258,0,0,10.257,0,22.908c0,12.652,10.258,22.91,22.909,22.91s22.909-10.258,22.909-22.91
		C45.818,10.257,35.561,0,22.909,0z M26.411,35.417c0,1.921-1.573,3.478-3.492,3.478c-1.92,0-3.492-1.557-3.492-3.478V20.201
		c0-1.92,1.572-3.477,3.492-3.477c1.919,0,3.492,1.556,3.492,3.477V35.417z M22.909,13.851c-2.119,0-3.837-1.718-3.837-3.836
		c0-2.12,1.718-3.836,3.837-3.836c2.118,0,3.837,1.716,3.837,3.836C26.746,12.133,25.027,13.851,22.909,13.851z"
        fill="url(#menuIconEnabled)"/>
</svg>