<svg width="16" height="16" viewBox="0 0 32 32" xmlns="http://www.w3.org/2000/svg">

    <defs id="colors">
		<linearGradient id="menuIconEnabled"
                        fallback="Label.foreground">
			<stop offset="0" stop-color="#AFB1B3"/>
            <stop offset="1" stop-color="#AFB1B3"/>
		</linearGradient>
	</defs>

    <path
        d="M9,29l0,-8.25c0,-1.518 1.232,-2.75 2.75,-2.75l8.5,0c1.518,0 2.75,1.232 2.75,2.75l0,8.25l-14,-0Zm-2,-0.101c-0.953,-0.195 -1.837,-0.665 -2.536,-1.363c-0.937,-0.938 -1.464,-2.21 -1.464,-3.536c-0,-4.439 -0,-11.561 0,-16c-0,-1.326 0.527,-2.598 1.464,-3.536c0.938,-0.937 2.21,-1.464 3.536,-1.464l2,-0l0,5.083c0,2.201 1.613,3.917 3.5,3.917l5,0c1.887,0 3.5,-1.716 3.5,-3.917l0,-5.083l0.221,0c0.24,0 0.472,0.087 0.654,0.244l5.779,5c0.22,0.19 0.346,0.466 0.346,0.756c0,0 0,9.426 -0,15c0,1.326 -0.527,2.598 -1.464,3.536c-0.699,0.698 -1.583,1.168 -2.536,1.363l0,-8.149c0,-2.622 -2.128,-4.75 -4.75,-4.75c0,0 -8.5,0 -8.5,0c-2.622,0 -4.75,2.128 -4.75,4.75l0,8.149Zm13,-25.899l0,5.083c0,1.02 -0.626,1.917 -1.5,1.917c0,0 -5,0 -5,0c-0.874,0 -1.5,-0.897 -1.5,-1.917l0,-5.083l8,0Z"
        fill="url(#menuIconEnabled)" />
    <g id="Icon"/>
</svg>