<svg width="16" height="16" viewBox="0 0 24 24" xmlns="http://www.w3.org/2000/svg">

    <rect width="100%" height="100%" fill="#dfe1e5" rx="4" ry="4" opacity="1"/>

    <path
        d="M14.799 4.276c-.212.043-.39.165-.468.322-.067.133-.072.465-.082 5.36l-.01 5.217-.95-.943c-1.052-1.046-1.123-1.094-1.454-.995-.218.065-.533.38-.598.598-.105.349-.104.349 1.582 2.045.842.847 1.551 1.579 1.576 1.627.056.108.437.293.605.293.168 0 .549-.185.605-.293.025-.048.734-.78 1.576-1.627 1.686-1.696 1.687-1.696 1.582-2.045-.065-.218-.38-.533-.598-.598-.331-.099-.402-.051-1.454.995l-.95.943-.01-5.217c-.01-4.917-.015-5.226-.082-5.361-.123-.246-.516-.391-.87-.321m-11 1c-.369.075-.536.299-.538.724-.001.332.101.542.322.657.154.082.206.083 2.917.083s2.763-.001 2.917-.083c.221-.115.323-.325.322-.657-.002-.335-.089-.517-.31-.643L9.26 5.26 6.6 5.254c-1.463-.004-2.723.006-2.801.022m0 4c-.369.075-.536.299-.538.724-.001.332.101.542.322.657.154.082.206.083 2.917.083s2.763-.001 2.917-.083c.221-.115.323-.325.322-.657-.002-.335-.089-.517-.31-.643L9.26 9.26 6.6 9.254c-1.463-.004-2.723.006-2.801.022m0 4c-.369.075-.536.299-.538.724-.001.332.101.542.322.657.154.082.206.083 2.917.083s2.763-.001 2.917-.083c.221-.115.323-.325.322-.657-.002-.335-.089-.517-.31-.643l-.169-.097-2.66-.006c-1.463-.004-2.723.006-2.801.022m0 5c-.368.074-.536.299-.538.724-.001.332.101.542.322.657l.157.083h16.52l.157-.083c.221-.115.323-.325.322-.657-.002-.335-.089-.517-.31-.643l-.169-.097-8.16-.006c-4.488-.003-8.223.007-8.301.022"
        fill-rule="evenodd" fill="#777b88"/>
</svg>