<?xml version="1.0" encoding="utf-8"?><!-- Uploaded to: SVG Repo, www.svgrepo.com, Generator: SVG Repo Mixer Tools -->
<svg fill="#000000" width="800px" height="800px" viewBox="0 0 24 24" id="file-folder-approved" data-name="Flat Color"
     xmlns="http://www.w3.org/2000/svg" class="icon flat-color">

    <defs id="colors">
        <linearGradient id="fileIconBackground"
                        fallback="Label.foreground" opacity="fileIconOpacity"
                        opacity-fallback="%100">
            <stop offset="0" stop-color="#9AA7B0" stop-opacity=".8" />
            <stop offset="1" stop-color="#9AA7B0" stop-opacity=".8" />
        </linearGradient>
        <linearGradient id="effectiveAccentColor">
            <stop offset="0" stop-color="#365880" />
            <stop offset="1" stop-color="#365880" />
        </linearGradient>
    </defs>

    <path id="secondary" d="M18,2H6A2,2,0,0,0,4,4v7a1,1,0,0,0,1,1H19a1,1,0,0,0,1-1V4A2,2,0,0,0,18,2Z"
          fill="url(#fileIconBackground)"/>
    <path id="primary"
          d="M12.51,18.07A6.63,6.63,0,0,1,18,14a6.43,6.43,0,0,1,4,1V12a2,2,0,0,0-2-2H11.4L9.7,8.29A1,1,0,0,0,9,8H4a2,2,0,0,0-2,2V20a2,2,0,0,0,2,2h8.19A6.18,6.18,0,0,1,12.51,18.07Z"
          fill="url(#effectiveAccentColor)"/>
    <!-- 将第三部分往下移动一点 -->
    <path id="secondary" d="M21,17H19V15a1,1,0,0,0-2,0v2H15a1,1,0,0,0,0,2h2v2a1,1,0,0,0,2,0V19h2a1,1,0,0,0,0-2Z"
          transform="translate(0 1)"
          fill="url(#effectiveAccentColor)"/>
    />
</svg>