<?xml version="1.0" encoding="utf-8"?><!-- Uploaded to: SVG Repo, www.svgrepo.com, Generator: SVG Repo Mixer Tools -->
<svg fill="#000000" width="800px" height="800px" viewBox="0 0 24 24" id="file-new" data-name="Flat Color"
     xmlns="http://www.w3.org/2000/svg" class="icon flat-color">

    <defs id="colors">
        <linearGradient id="fileIconBackground"
                        fallback="Label.foreground" opacity="fileIconOpacity"
                        opacity-fallback="%100">
            <stop offset="0" stop-color="#9AA7B0" stop-opacity=".8" />
            <stop offset="1" stop-color="#9AA7B0" stop-opacity=".8" />
        </linearGradient>
        <linearGradient id="effectiveAccentColor">
            <stop offset="0" stop-color="#365880" />
            <stop offset="1" stop-color="#365880" />
        </linearGradient>
    </defs>

    <path id="secondary" d="M21,17H19V15a1,1,0,0,0-2,0v2H15a1,1,0,0,0,0,2h2v2a1,1,0,0,0,2,0V19h2a1,1,0,0,0,0-2Z"
          fill="url(#effectiveAccentColor)"/>
    <path id="primary"
          d="M11,17a6,6,0,0,1,6-6,6.64,6.64,0,0,1,1,.09V7.41A2,2,0,0,0,17.41,6L14,2.59A2,2,0,0,0,12.59,2H4A2,2,0,0,0,2,4V19a2,2,0,0,0,2,2h8.55A5.93,5.93,0,0,1,11,17Z"
          fill="url(#fileIconBackground)"/>
</svg>