<?xml version="1.0" encoding="utf-8"?>
<!-- Uploaded to: SVG Repo, www.svgrepo.com, Transformed by: SVG Repo Mixer Tools -->
<svg fill="#000000" width="800px" height="800px" viewBox="0 0 24 24" id="file-4" data-name="Flat Color"
     xmlns="http://www.w3.org/2000/svg" class="icon flat-color">

    <defs id="colors">
        <linearGradient id="fileIconBackground"
                        fallback="Label.foreground" opacity="fileIconOpacity"
                        opacity-fallback="%100">
            <stop offset="0" stop-color="#9AA7B0" stop-opacity=".8" />
            <stop offset="1" stop-color="#9AA7B0" stop-opacity=".8" />
        </linearGradient>
        <linearGradient id="effectiveAccentColor">
            <stop offset="0" stop-color="#365880" />
            <stop offset="1" stop-color="#365880" />
        </linearGradient>
    </defs>
    <g id="SVGRepo_bgCarrier" stroke-width="0"/>
    <g id="SVGRepo_tracerCarrier" stroke-linecap="round" stroke-linejoin="round"/>
    <g id="SVGRepo_iconCarrier">
        <path id="primary"
              fill="url(#fileIconBackground)"
              d="M19.71,8.29l-6-6A1,1,0,0,0,13,2H6A2,2,0,0,0,4,4V20a2,2,0,0,0,2,2H18a2,2,0,0,0,2-2V9A1,1,0,0,0,19.71,8.29Z" />

        <path id="secondary"
              fill="url(#effectiveAccentColor)"
              d="M13,2a1,1,0,0,1,.71.28l6,6A1,1,0,0,1,20,9H14a1,1,0,0,1-1-1Zm4,15a1,1,0,0,0-1-1H8a1,1,0,0,0,0,2h8A1,1,0,0,0,17,17Zm0-4a1,1,0,0,0-1-1H8a1,1,0,0,0,0,2h8A1,1,0,0,0,17,13Z"/>
    </g>
</svg>