<svg width="64px" height="64px" viewBox="-3.36 -3.36 30.72 30.72" fill="none" xmlns="http://www.w3.org/2000/svg">
    <g id="SVGRepo_bgCarrier" stroke-width="0"></g>
    <g id="SVGRepo_tracerCarrier" stroke-linecap="round" stroke-linejoin="round"></g>
    <g id="SVGRepo_iconCarrier">
        <g id="style=linear">
            <g id="star">
                <path id="vector"
                      d="M13.73 3.50965L15.49 7.02965C15.73 7.51965 16.37 7.98965 16.91 8.07965L20.1 8.60965C22.14 8.94965 22.62 10.4296 21.15 11.8896L18.67 14.3696C18.25 14.7896 18.02 15.5996 18.15 16.1796L18.86 19.2496C19.42 21.6796 18.13 22.6196 15.98 21.3496L12.99 19.5796C12.45 19.2596 11.56 19.2596 11.01 19.5796L8.02003 21.3496C5.88003 22.6196 4.58003 21.6696 5.14003 19.2496L5.85003 16.1796C5.98003 15.5996 5.75003 14.7896 5.33003 14.3696L2.85003 11.8896C1.39003 10.4296 1.86003 8.94965 3.90003 8.60965L7.09003 8.07965C7.62003 7.98965 8.26003 7.51965 8.50003 7.02965L10.26 3.50965C11.22 1.59965 12.78 1.59965 13.73 3.50965Z"
                      stroke="#DFE1E4" stroke-width="1.5" stroke-linecap="round" stroke-linejoin="round"></path>
            </g>
        </g>
    </g>
</svg>