<svg width="64px" height="64px" viewBox="-3.36 -3.36 30.72 30.72" fill="none" xmlns="http://www.w3.org/2000/svg"
     stroke="#000000" stroke-width="0.00024000000000000003">
    <g id="SVGRepo_bgCarrier" stroke-width="0"></g>
    <g id="SVGRepo_tracerCarrier" stroke-linecap="round" stroke-linejoin="round"></g>
    <g id="SVGRepo_iconCarrier">
        <g id="style=fill">
            <g id="star">
                <path id="vector (Stroke)" fill-rule="evenodd" clip-rule="evenodd"
                      d="M14.4012 3.17499C13.8719 2.11134 13.0447 1.32715 11.9987 1.32715C10.9539 1.32715 10.1241 2.11 9.58985 3.17284L7.82915 6.69424L7.82642 6.69975C7.77359 6.8076 7.64731 6.9611 7.45702 7.10219C7.26737 7.2428 7.0834 7.31975 6.96547 7.34005L6.96441 7.34023L3.77705 7.86979C2.62694 8.06147 1.66106 8.62118 1.34801 9.6015C1.03519 10.5811 1.49663 11.597 2.31964 12.42L4.79964 14.9C4.89724 14.9976 5.0066 15.1815 5.07518 15.4211C5.14334 15.6592 5.1491 15.8751 5.11856 16.0137L5.11813 16.0156L4.40928 19.0806C4.11373 20.3578 4.21624 21.6259 5.12539 22.2893C6.03398 22.9522 7.27361 22.6647 8.40273 21.9946L11.3871 20.2279L11.389 20.2268C11.5232 20.1494 11.7443 20.0896 12.0037 20.0896C12.265 20.0896 12.4816 20.1502 12.6076 20.2249L15.5979 21.995C16.7284 22.6628 17.9695 22.9555 18.878 22.2932C19.7878 21.6299 19.8854 20.3595 19.5908 19.0812L18.8818 16.0156L18.8814 16.0137C18.8508 15.8751 18.8566 15.6592 18.9248 15.4211C18.9933 15.1815 19.1027 14.9976 19.2003 14.9L21.6785 12.4218L21.6795 12.4208C22.5077 11.5978 22.9706 10.5811 22.6552 9.60014C22.3403 8.62044 21.3726 8.06141 20.2233 7.86985L17.0333 7.33985"
                      fill="#fc0"></path>
            </g>
        </g>
    </g>
</svg>